<?xml version="1.0" ?>
<!-- Uploaded to: SVG Repo, www.svgrepo.com, Generator: SVG Repo Mixer Tools -->
<svg width="800px" height="800px" viewBox="0 0 512 512" version="1.1" xml:space="preserve" xmlns="http://www.w3.org/2000/svg" xmlns:xlink="http://www.w3.org/1999/xlink">
<style type="text/css">
	.st0{fill:#16ADE1;}
	.st1{fill:#1B3954;}
</style>
<g id="Layer_1"/>
<g id="Layer_2">
<g>
<rect class="st0" height="33.5" width="151" x="80.4" y="84.2"/>
<rect class="st0" height="33.5" width="151" x="80.4" y="161.2"/>
<path class="st1" d="M330.2,40h-38v293.3c-16.5-3.8-35.4-3.9-54.7,0.7c-13.5,3.2-25.9,8.3-36.6,14.8    c-18.7,11.3-32.3,26.8-38.3,43.5c-3.6,10.1-4.5,20.5-2.1,30.8c0.2,0.9,0.4,1.8,0.7,2.7c10.4,35.5,57.9,54.6,108,42.9    c11-2.6,21.1-6.4,30.3-11.2c15.6-8.2,28.3-19.2,36.7-31.6c7.1-10.5,11.2-22,11.4-33.5c0-0.4,0-0.7,0-1.1V135.5l45,45l19.3-19.3    l19.8-19.8L330.2,40z M244.1,362.1c-10.3,2.4-19.8,6.2-28.2,11.4c-12.8,7.8-22.3,18.2-26.1,28.6c-0.7,2-2.7,3.3-4.7,3.3    c-0.6,0-1.1-0.1-1.7-0.3c-2.6-0.9-3.9-3.8-3-6.4c4.5-12.5,15.6-24.8,30.3-33.7c9.3-5.7,19.8-9.9,31.1-12.5c2.7-0.6,5.4,1,6,3.7    C248.5,358.8,246.8,361.5,244.1,362.1z"/>
<rect class="st0" height="33.5" width="151" x="80.4" y="238.2"/>
<path class="st0" d="M195.7,340.2c10.9-6.6,22.8-11.6,35.7-15v-9.9h-151v33.5h103C187.2,345.7,191.3,342.8,195.7,340.2z"/>
<path class="st0" d="M80.4,392.2v33.5h70.4c0-0.1-0.1-0.3-0.1-0.4c-2.5-10.9-2.1-22,1.3-33.1H80.4z"/>
</g>
</g>
</svg>